<svg width="547" height="569" viewBox="0 0 547 569" fill="none" xmlns="http://www.w3.org/2000/svg">
<path d="M547 284.5C547 228.231 530.96 173.226 500.907 126.44C470.855 79.6545 428.14 43.1894 378.164 21.6563C328.189 0.123141 273.197 -5.51091 220.143 5.46659C167.089 16.4441 118.356 43.5401 80.1065 83.3281C41.8569 123.116 15.8085 173.809 5.25547 228.997C-5.29759 284.184 0.118625 341.388 20.8192 393.373C41.5198 445.359 76.5749 489.792 121.552 521.053C166.529 552.314 219.407 569 273.5 569V375.49C256.2 375.49 239.288 370.153 224.904 360.155C210.519 350.157 199.307 335.947 192.687 319.32C186.066 302.694 184.334 284.399 187.709 266.749C191.084 249.098 199.415 232.886 211.648 220.16C223.881 207.435 239.467 198.769 256.435 195.258C273.403 191.748 290.991 193.549 306.974 200.436C322.958 207.323 336.619 218.986 346.23 233.949C355.842 248.912 360.972 266.504 360.972 284.5H547Z" fill="#CBB04C"/>
</svg>
